<?xml version="1.0" encoding="utf-8"?>
<!-- Generator: Adobe Illustrator 25.3.1, SVG Export Plug-In . SVG Version: 6.00 Build 0)  -->
<svg version="1.1" xmlns="http://www.w3.org/2000/svg" xmlns:xlink="http://www.w3.org/1999/xlink" x="0px" y="0px"
	 viewBox="0 0 512 512" style="enable-background:new 0 0 512 512;" xml:space="preserve">
<g id="Layer_2">
	<rect style="fill:#FFFFFF;" width="512" height="512"/>
</g>
<g id="Layer_1">
	<path style="fill:#3B3B3B;" d="M437.44,189.67c6.78-15.4,10.16-29.09,10.16-41.1c0-25.82-17.08-38.73-51.27-38.73H194.05
		c-5.24,0-9.14,2.73-11.74,8.22L65.29,393.93c-2.1,5.51-0.52,8.24,4.7,8.24h200.35c15.4,0,28.57-1.23,39.52-3.73
		c10.95-2.46,20.62-6.78,28.95-12.9c8.36-6.12,15.92-14.48,22.7-25.07c6.8-10.55,13.57-23.79,20.35-39.7L437.44,189.67z M331,204.15
		l-43.84,102.92c-3.39,8.36-8.61,12.51-15.65,12.51h-76.7l54-127.96h76.7c4.97,0,7.45,1.83,7.45,5.49
		C332.96,198.66,332.31,201.01,331,204.15z"/>
</g>
</svg>
